<?xml version="1.0" encoding="iso-8859-1"?>
<!-- Generator: Adobe Illustrator 19.0.0, SVG Export Plug-In . SVG Version: 6.00 Build 0)  -->
<svg version="1.1" id="Capa_1" xmlns="http://www.w3.org/2000/svg" xmlns:xlink="http://www.w3.org/1999/xlink" x="0px" y="0px"
	 viewBox="0 0 512 512" style="enable-background:new 0 0 512 512;" xml:space="preserve">
<g>
	<g>
		<path d="M156.327,370.885l-16.288-7.3c-5.073-2.274-9.12-6.32-11.393-11.392l-7.3-16.289c-1.208-2.696-3.887-4.431-6.841-4.431
			s-5.632,1.734-6.841,4.431l-7.3,16.289c-2.273,5.072-6.319,9.118-11.392,11.392l-16.289,7.3c-2.696,1.207-4.431,3.887-4.431,6.84
			s1.735,5.633,4.431,6.841l16.288,7.3c5.074,2.274,9.119,6.321,11.393,11.393l7.3,16.288c1.207,2.696,3.887,4.431,6.84,4.431
			s5.632-1.734,6.841-4.431l7.3-16.288c2.273-5.072,6.32-9.119,11.392-11.393l16.289-7.3c2.696-1.207,4.431-3.887,4.431-6.841
			S159.023,372.092,156.327,370.885z M133.906,378.185c-8.435,3.781-15.162,10.509-18.942,18.942l-0.459,1.025l-0.46-1.024
			c-3.779-8.434-10.506-15.162-18.942-18.943l-1.026-0.46l1.026-0.46c8.437-3.781,15.163-10.509,18.942-18.941l0.46-1.025
			l0.459,1.025c3.78,8.435,10.508,15.161,18.942,18.941l1.026,0.46L133.906,378.185z"/>
	</g>
</g>
<g>
	<g>
		<path d="M414.094,362.477l-16.291-7.3c-5.073-2.274-9.12-6.32-11.392-11.392l-7.3-16.289c-1.208-2.696-3.887-4.431-6.841-4.431
			c-2.954,0-5.632,1.734-6.84,4.431l-7.3,16.289c-2.273,5.072-6.32,9.118-11.392,11.392l-16.288,7.3
			c-2.696,1.207-4.431,3.887-4.431,6.841c0,2.953,1.735,5.633,4.431,6.84l16.288,7.3c5.073,2.274,9.12,6.321,11.393,11.393
			l7.3,16.288c1.208,2.696,3.887,4.431,6.84,4.431c2.953,0,5.632-1.734,6.841-4.431l7.301-16.289
			c2.273-5.071,6.319-9.118,11.392-11.392l16.289-7.3c2.696-1.207,4.431-3.887,4.431-6.841S416.79,363.685,414.094,362.477z
			 M391.671,369.778c-8.436,3.781-15.162,10.51-18.941,18.942l-0.46,1.025l-0.46-1.025c-3.78-8.435-10.507-15.161-18.942-18.942
			l-1.024-0.46l1.026-0.46c8.435-3.78,15.161-10.508,18.942-18.941l0.46-1.025l0.46,1.025c3.779,8.434,10.507,15.16,18.942,18.941
			l1.024,0.46L391.671,369.778z"/>
	</g>
</g>
<g>
	<g>
		<path d="M471.317,207.798l-16.289-7.3c-5.072-2.273-9.118-6.32-11.392-11.392l-7.3-16.289c-1.208-2.696-3.887-4.431-6.841-4.431
			c-2.954,0-5.632,1.734-6.841,4.431l-7.3,16.289c-2.274,5.073-6.32,9.119-11.392,11.392l-16.288,7.3
			c-2.696,1.207-4.431,3.887-4.431,6.84s1.735,5.633,4.431,6.841l16.288,7.3c5.073,2.274,9.12,6.321,11.393,11.393l7.3,16.289
			c1.207,2.697,3.886,4.431,6.84,4.431c2.954,0,5.632-1.734,6.841-4.431l7.3-16.289c2.273-5.072,6.32-9.119,11.392-11.393
			l16.289-7.3c2.696-1.207,4.431-3.887,4.431-6.841S474.012,209.005,471.317,207.798z M448.898,215.099
			c-8.435,3.781-15.162,10.509-18.942,18.942l-0.459,1.024l-0.46-1.024c-3.781-8.435-10.508-15.161-18.943-18.942l-1.024-0.46
			l1.024-0.459c8.435-3.78,15.162-10.508,18.943-18.942l0.46-1.024l0.459,1.024c3.781,8.435,10.508,15.162,18.942,18.941l1.025,0.46
			L448.898,215.099z"/>
	</g>
</g>
<g>
	<g>
		<path d="M52.501,82.66c-6.93,0-12.566,5.637-12.566,12.566s5.637,12.566,12.566,12.566c6.929,0,12.566-5.637,12.566-12.566
			S59.43,82.66,52.501,82.66z"/>
	</g>
</g>
<g>
	<g>
		<path d="M90.099,82.66c-6.929,0-12.566,5.637-12.566,12.566s5.637,12.566,12.566,12.566c6.929,0,12.566-5.637,12.566-12.566
			S97.028,82.66,90.099,82.66z"/>
	</g>
</g>
<g>
	<g>
		<path d="M127.697,82.66c-6.929,0-12.566,5.637-12.566,12.566s5.637,12.566,12.566,12.566c6.929,0,12.566-5.637,12.566-12.566
			S134.626,82.66,127.697,82.66z"/>
	</g>
</g>
<g>
	<g>
		<path d="M399.928,269.742c-0.004-0.163-0.01-0.326-0.025-0.489c-0.009-0.099-0.023-0.197-0.035-0.295
			c-0.018-0.135-0.037-0.269-0.062-0.403c-0.02-0.108-0.043-0.214-0.067-0.319c-0.028-0.122-0.059-0.243-0.094-0.364
			c-0.031-0.109-0.063-0.216-0.099-0.323c-0.038-0.116-0.081-0.23-0.126-0.344c-0.041-0.105-0.082-0.21-0.127-0.313
			c-0.05-0.113-0.105-0.223-0.161-0.333c-0.05-0.099-0.098-0.198-0.152-0.294c-0.061-0.109-0.129-0.215-0.195-0.322
			c-0.058-0.093-0.115-0.187-0.177-0.277c-0.071-0.103-0.149-0.202-0.226-0.303c-0.067-0.088-0.132-0.177-0.203-0.261
			c-0.015-0.018-0.028-0.038-0.044-0.056l-61.515-71.878c-1.424-1.663-3.505-2.622-5.695-2.622h-133.02l-14.824-6.645
			c-5.073-2.274-9.119-6.321-11.393-11.393l-7.3-16.289c-1.208-2.696-3.887-4.431-6.841-4.431s-5.632,1.734-6.84,4.431l-7.3,16.289
			c-2.274,5.072-6.32,9.119-11.393,11.393l-16.288,7.3c-2.696,1.207-4.431,3.887-4.431,6.841s1.735,5.633,4.431,6.841l16.289,7.3
			c5.072,2.273,9.118,6.32,11.392,11.392l0.307,0.685l-34.904,40.786c-0.015,0.019-0.028,0.038-0.043,0.056
			c-0.071,0.084-0.136,0.173-0.203,0.261c-0.077,0.1-0.155,0.2-0.226,0.303c-0.062,0.09-0.119,0.184-0.177,0.277
			c-0.067,0.107-0.134,0.213-0.195,0.322c-0.054,0.096-0.103,0.195-0.152,0.294c-0.056,0.111-0.111,0.221-0.16,0.333
			c-0.046,0.103-0.086,0.207-0.127,0.313c-0.044,0.114-0.087,0.228-0.126,0.344c-0.035,0.107-0.068,0.214-0.099,0.323
			c-0.034,0.121-0.066,0.242-0.094,0.364c-0.024,0.106-0.048,0.212-0.067,0.319c-0.025,0.134-0.044,0.268-0.062,0.403
			c-0.013,0.098-0.026,0.196-0.035,0.295c-0.015,0.163-0.021,0.325-0.025,0.489c-0.001,0.061-0.009,0.121-0.009,0.183
			c0,0.015,0.002,0.029,0.002,0.044c0.001,0.238,0.012,0.476,0.036,0.714c0.004,0.041,0.013,0.081,0.018,0.122
			c0.023,0.193,0.05,0.386,0.088,0.577c0.02,0.102,0.047,0.2,0.072,0.301c0.031,0.128,0.061,0.255,0.098,0.382
			c0.032,0.107,0.069,0.211,0.106,0.316c0.041,0.117,0.081,0.234,0.128,0.349c0.042,0.103,0.088,0.204,0.134,0.305
			c0.052,0.113,0.104,0.225,0.162,0.336c0.051,0.098,0.105,0.194,0.16,0.29c0.062,0.108,0.126,0.214,0.194,0.319
			c0.06,0.094,0.123,0.186,0.187,0.276c0.071,0.101,0.145,0.199,0.222,0.297c0.07,0.089,0.142,0.177,0.217,0.264
			c0.037,0.043,0.07,0.089,0.108,0.132l138.966,154.08c0.003,0.004,0.007,0.007,0.01,0.01c0.018,0.02,0.038,0.037,0.055,0.057
			c0.112,0.121,0.228,0.237,0.348,0.351c0.038,0.035,0.074,0.071,0.113,0.106c0.029,0.027,0.058,0.054,0.088,0.08
			c0.105,0.093,0.215,0.182,0.326,0.269c0.042,0.033,0.086,0.065,0.129,0.098c0.015,0.012,0.03,0.023,0.045,0.034
			c0.039,0.029,0.076,0.06,0.115,0.088c0.091,0.064,0.184,0.125,0.279,0.185c0.015,0.009,0.028,0.02,0.042,0.03
			c0.017,0.01,0.034,0.017,0.051,0.027c0.051,0.031,0.101,0.063,0.153,0.093c0.046,0.027,0.091,0.058,0.137,0.084
			c0.173,0.097,0.354,0.185,0.537,0.269c0.012,0.006,0.025,0.013,0.037,0.019c0.018,0.008,0.035,0.018,0.053,0.026
			c0.023,0.01,0.046,0.022,0.07,0.032c0.027,0.011,0.051,0.026,0.079,0.038c0.179,0.075,0.361,0.136,0.542,0.196
			c0.031,0.01,0.061,0.023,0.092,0.033c0.065,0.021,0.129,0.039,0.194,0.058c0.012,0.004,0.025,0.006,0.037,0.009
			c0.313,0.089,0.627,0.153,0.942,0.2c0.034,0.005,0.067,0.01,0.1,0.015c0.331,0.044,0.662,0.075,0.99,0.075
			c0.089,0,0.176-0.016,0.264-0.02c0.216-0.007,0.431-0.021,0.645-0.047c0.135-0.017,0.268-0.039,0.401-0.062
			c0.189-0.033,0.376-0.076,0.562-0.123c0.074-0.019,0.148-0.03,0.222-0.051c0.046-0.013,0.092-0.029,0.138-0.044
			c0.274-0.085,0.544-0.185,0.809-0.302c0.02-0.009,0.039-0.018,0.058-0.027c0.084-0.038,0.163-0.085,0.246-0.126
			c0.192-0.095,0.381-0.198,0.565-0.311c0.037-0.023,0.077-0.038,0.114-0.061c0.01-0.006,0.019-0.014,0.029-0.02
			c0.059-0.038,0.115-0.081,0.174-0.121c0.081-0.055,0.161-0.11,0.24-0.168c0.13-0.096,0.253-0.197,0.375-0.3
			c0.059-0.05,0.121-0.096,0.178-0.148c0.005-0.005,0.01-0.01,0.015-0.015c0.189-0.171,0.37-0.349,0.539-0.536l0.001-0.001
			l138.964-154.079c0.039-0.043,0.071-0.089,0.108-0.132c0.074-0.086,0.146-0.174,0.217-0.264c0.077-0.098,0.151-0.196,0.222-0.297
			c0.064-0.091,0.127-0.183,0.187-0.276c0.068-0.105,0.132-0.212,0.194-0.319c0.055-0.096,0.109-0.192,0.16-0.29
			c0.057-0.111,0.11-0.223,0.162-0.336c0.046-0.101,0.092-0.202,0.134-0.305c0.047-0.115,0.087-0.232,0.128-0.349
			c0.036-0.105,0.074-0.209,0.106-0.316c0.038-0.126,0.067-0.254,0.098-0.382c0.024-0.1,0.052-0.199,0.072-0.301
			c0.038-0.191,0.065-0.384,0.088-0.577c0.005-0.041,0.014-0.081,0.018-0.122c0.024-0.237,0.035-0.475,0.036-0.714
			c0-0.015,0.002-0.029,0.002-0.044C399.937,269.863,399.929,269.803,399.928,269.742z M284.429,205.541l22.653,56.886H199.862
			l22.653-56.886H284.429z M138.147,198.504l-1.024-0.46l1.026-0.46c8.435-3.781,15.161-10.509,18.942-18.942l0.459-1.024
			l0.46,1.024c3.78,8.435,10.508,15.161,18.942,18.942l1.024,0.46l-1.024,0.46c-8.435,3.779-15.162,10.507-18.943,18.941
			l-0.46,1.024l-0.459-1.024C153.309,209.011,146.582,202.283,138.147,198.504z M150.496,239.396l0.212,0.47
			c1.208,2.696,3.887,4.431,6.84,4.431c2.955,0,5.632-1.734,6.841-4.431l7.3-16.289c2.274-5.072,6.32-9.119,11.392-11.392
			l14.825-6.644h8.47l-22.653,56.886h-52.937L150.496,239.396z M253.471,404.635l-31.679-75.482
			c-1.602-3.818-5.997-5.611-9.813-4.012c-3.817,1.603-5.613,5.996-4.011,9.813l21.512,51.259l-98.12-108.793h52.463l11.979,28.542
			c0,0,0.001,0.001,0.001,0.002l0.002,0.006c1.601,3.816,5.996,5.612,9.813,4.012c3.817-1.603,5.613-5.996,4.011-9.813
			l-9.547-22.748h106.778L253.471,404.635z M277.463,386.21l45.658-108.791h52.461L277.463,386.21z M323.221,262.427l-22.653-56.886
			h26.904l48.684,56.886H323.221z"/>
	</g>
</g>
<g>
	<g>
		<path d="M504.504,381.734c-4.14,0-7.496,3.355-7.496,7.496v49.289c0,4.134-3.363,7.496-7.496,7.496H22.488
			c-4.133,0-7.496-3.362-7.496-7.496V210.594c0-4.141-3.356-7.496-7.496-7.496S0,206.453,0,210.594V438.52
			c0,12.4,10.088,22.488,22.488,22.488h467.023c12.401,0,22.488-10.089,22.488-22.488v-49.289
			C512,385.09,508.644,381.734,504.504,381.734z"/>
	</g>
</g>
<g>
	<g>
		<path d="M489.511,50.992H22.488C10.088,50.992,0,61.081,0,73.48v59.937v47.192c0,4.141,3.356,7.496,7.496,7.496
			s7.496-3.355,7.496-7.496v-39.696h482.015v218.331c0,4.141,3.356,7.496,7.496,7.496s7.496-3.355,7.496-7.496V133.418V73.48
			C512,61.081,501.912,50.992,489.511,50.992z M497.008,125.922H14.992V73.48c0-4.134,3.363-7.496,7.496-7.496h467.023
			c4.133,0,7.496,3.362,7.496,7.496V125.922z"/>
	</g>
</g>
<g>
</g>
<g>
</g>
<g>
</g>
<g>
</g>
<g>
</g>
<g>
</g>
<g>
</g>
<g>
</g>
<g>
</g>
<g>
</g>
<g>
</g>
<g>
</g>
<g>
</g>
<g>
</g>
<g>
</g>
</svg>
